<svg xmlns="http://www.w3.org/2000/svg" width="18" height="18" fill="none" viewBox="0 0 18 18">
    <path fill="#ACAFB9" d="M4.861 17.403h4.38c.307 0 .614-.115.845-.307a5.302 5.302 0 0 1-1.921-4.072 5.31 5.31 0 0 1 3.42-4.956.991.991 0 0 0-.961-.73c-.538 0-1 .46-1 .999v-.154a.992.992 0 0 0-.998-.999c-.538 0-1.037.461-1.037 1v-.155a.992.992 0 0 0-1-.998c-.537 0-.998.46-.998.998V3.42a1.05 1.05 0 0 0-.307-.73.984.984 0 0 0-.73-.307.992.992 0 0 0-1 .999v7.03l-1.19-2.266a1.216 1.216 0 0 0-1.69-.5c-.615.308-.846 1.076-.538 1.69 2.266 3.65 2.92 4.688 3.111 4.957 0 0 0 .038.039.038v.038c.153.27.269.615.269.922v.73c-.077.769.538 1.383 1.306 1.383z"/>
    <path fill="#ACAFB9" d="M7.358 2.843A2.837 2.837 0 0 0 4.515 0a2.837 2.837 0 0 0-2.843 2.843c0 .845.385 1.652 1.038 2.19V3.419c0-.999.806-1.767 1.767-1.767.5 0 .922.192 1.268.538.345.307.538.768.538 1.268V5.07c.653-.538 1.075-1.344 1.075-2.228zM13.467 8.529a4.542 4.542 0 0 0-4.534 4.533 4.542 4.542 0 0 0 4.534 4.534A4.542 4.542 0 0 0 18 13.062a4.542 4.542 0 0 0-4.533-4.533zm1.92 3.803L13.39 14.33a.349.349 0 0 1-.27.115.349.349 0 0 1-.268-.115l-1.268-1.268a.371.371 0 0 1 0-.538.371.371 0 0 1 .538 0l.999 1 1.729-1.73a.371.371 0 0 1 .538 0c.153.154.115.385 0 .538zM14.542 7.876V2.843a.385.385 0 0 0-.384-.384h-6.07c0 .115.039.269.039.384 0 .115 0 .269-.039.384h5.686V7.76c.269 0 .538.039.768.116z"/>
</svg>
