<svg xmlns="http://www.w3.org/2000/svg" width="18" height="18" fill="none" viewBox="0 0 18 18">
    <path fill="#ACAFB9" d="M2.15 2.703h2.542V1.027c0-.144.018-.27.056-.396H1.065C.467.63 0 1.099 0 1.658V16.36c0 .577.486 1.027 1.065 1.027h3.701a1.45 1.45 0 0 1-.056-.396V6.919H2.15a.349.349 0 0 1-.356-.342c0-.199.169-.343.356-.343h2.542V5.135H2.15a.349.349 0 0 1-.356-.342c0-.198.169-.343.356-.343h2.542V3.351H2.15a.349.349 0 0 1-.356-.342c0-.144.169-.306.356-.306zM16.916.63h-3.738c.037.127.056.27.056.397v1.694c.037 0 .056-.018.093-.018h2.505c.205 0 .355.162.355.342a.349.349 0 0 1-.355.342h-2.505c-.037 0-.075 0-.093-.018v1.117c.037 0 .056-.018.093-.018h2.505c.205 0 .355.163.355.343a.349.349 0 0 1-.355.342h-2.505c-.037 0-.075 0-.093-.018v1.117c.037 0 .056-.018.093-.018h2.505c.205 0 .355.162.355.342a.349.349 0 0 1-.355.343h-2.505c-.037 0-.075 0-.093-.018v10.072c0 .144-.019.27-.056.396h3.757c.598 0 1.065-.468 1.065-1.027V1.658A1.063 1.063 0 0 0 16.916.63zM8.972 15.423c.485 0 .878-.379.878-.847 0-.467-.393-.846-.878-.846-.486 0-.879.379-.879.846 0 .468.393.847.879.847z"/>
    <path fill="#ACAFB9" d="M11.552 0H6.374c-.598 0-1.065.468-1.065 1.027v15.946c0 .576.486 1.027 1.065 1.027h5.159c.598 0 1.065-.469 1.065-1.027V1.027C12.617.468 12.131 0 11.552 0zm-2.58 16.108c-.878 0-1.589-.685-1.589-1.532 0-.846.71-1.531 1.59-1.531.878 0 1.588.685 1.588 1.531 0 .847-.71 1.532-1.589 1.532zm1.346-9.37h-2.71a.349.349 0 0 1-.356-.342c0-.198.169-.342.356-.342h2.691c.206 0 .355.162.355.342.019.199-.15.343-.336.343zm0-1.91h-2.71a.349.349 0 0 1-.356-.342c0-.198.169-.342.356-.342h2.691c.206 0 .355.162.355.342.019.199-.15.343-.336.343zm0-1.91h-2.71a.349.349 0 0 1-.356-.341c0-.199.169-.343.356-.343h2.691c.206 0 .355.162.355.343.019.198-.15.342-.336.342z"/>
</svg>
