<svg xmlns="http://www.w3.org/2000/svg" width="18" height="15" fill="none" viewBox="0 0 18 15">
    <path fill="#ACAFB9" d="M3.458.428A.426.426 0 0 1 3.848 0h10.266a.425.425 0 0 1 .415.41.425.425 0 0 1-.415.408H3.886a.426.426 0 0 1-.428-.39zM1.822 2.27a.426.426 0 0 1 .39-.43H15.75a.425.425 0 0 1 .415.41.425.425 0 0 1-.415.41H2.25a.426.426 0 0 1-.428-.39zM7.102 8.51h.62c.194 0 .343-.048.45-.145a.531.531 0 0 0 .158-.408.561.561 0 0 0-.151-.415c-.1-.101-.252-.151-.459-.151h-.618v1.12zM11.394 9.085c0-.258-.047-.457-.139-.597a.444.444 0 0 0-.397-.21c-.233 0-.392.088-.48.266V9.68c.091.183.252.274.485.274.354 0 .53-.29.53-.869z"/>
    <path fill="#ACAFB9" fill-rule="evenodd" d="M0 4.09c0-.201.17-.39.37-.408h17.22c.215 0 .41.195.41.409v10.227c0 .214-.195.41-.41.41H.41a.425.425 0 0 1-.41-.41V4.091zm1.875 8.66a.375.375 0 0 0 0 .75h3a.375.375 0 0 0 0-.75h-3zm5.84-3.616h-.613V10.5h-.769V6.768H7.72c.441 0 .781.098 1.02.294.24.197.36.475.36.834 0 .254-.056.467-.167.638-.11.169-.276.304-.5.405l.807 1.525v.036h-.825l-.7-1.366zm4.42.005c0 .427-.098.77-.293 1.028a.93.93 0 0 1-.784.384.864.864 0 0 1-.68-.292v1.307h-.74v-3.84h.687l.025.272a.87.87 0 0 1 .703-.323c.341 0 .607.127.797.38.19.252.284.601.284 1.045v.039zm2.49-3.889a.375.375 0 0 0 0 .75h1.5a.375.375 0 0 0 0-.75h-1.5z" clip-rule="evenodd"/>
</svg>
