<svg xmlns="http://www.w3.org/2000/svg" width="18" height="16" fill="none" viewBox="0 0 18 16">
    <path fill="#ACAFB9" d="M17.308 9.692h-1.731V7.615a.346.346 0 0 0-.346-.346H9.346V5.54h1.73c.383 0 .693-.31.693-.693V.692A.693.693 0 0 0 11.077 0H6.923a.693.693 0 0 0-.692.692v4.154c0 .382.31.692.692.692h1.73V7.27H2.77a.346.346 0 0 0-.346.346v2.077H.693a.693.693 0 0 0-.693.693v4.154c0 .382.31.692.692.692h4.154c.382 0 .692-.31.692-.692v-4.154a.693.693 0 0 0-.692-.693h-1.73v-1.73h5.538v1.73h-1.73a.693.693 0 0 0-.693.693v4.154c0 .382.31.692.692.692h4.154c.382 0 .692-.31.692-.692v-4.154a.693.693 0 0 0-.692-.693h-1.73v-1.73h5.538v1.73h-1.731a.693.693 0 0 0-.693.693v4.154c0 .382.31.692.693.692h4.154c.382 0 .692-.31.692-.692v-4.154a.693.693 0 0 0-.692-.693z"/>
</svg>
