<svg xmlns="http://www.w3.org/2000/svg" width="18" height="16" fill="none" viewBox="0 0 18 16">
    <path fill="#ACAFB9" d="M16.275 3.42v5.7C17.288 8.67 18 7.547 18 6.27c0-1.274-.712-2.4-1.725-2.85zM5.4 9.608V2.971c-.862.037-1.687.487-2.25 1.2H1.988C.9 4.17 0 5.108 0 6.27c0 1.162.9 2.1 1.988 2.1H3.15c.525.75 1.35 1.2 2.25 1.237zM14.325.12c-2.888 1.688-5.588 2.626-8.213 2.813v6.75c2.475.263 5.213 1.2 8.213 2.813.525.3 1.162-.113 1.162-.713V.833c.038-.637-.6-1.05-1.162-.712zM2.925 9.308v4.2c0 .938.712 1.725 1.612 1.725.9 0 1.613-.787 1.613-1.725v-3.075c-.825-.112-2.025.038-3.225-1.125z"/>
</svg>
