<svg xmlns="http://www.w3.org/2000/svg" width="15" height="18" fill="none" viewBox="0 0 15 18">
    <path fill="#ACAFB9" d="M4.9 8.785c-.728-.588-1.024-1.428-1.137-2.12a.19.19 0 0 1-.117.041c-.156-.003-.364-.23-.59-1.095-.283-1.088-.017-1.303.24-1.3.06 0 .069-.001.12.014l.001-.023S2.656 1.76 4.487.642c0 0-.321-.261-.296-.637 0 0 .84.096 1.645.097.366.001.724-.017.993-.073.108-.022.217-.031.325-.028.756.019 1.48.608 1.608 1.177l.031-.001c.239 0 1.74.114 1.02 3.135l-.002.011a.566.566 0 0 1 .108-.012c.258-.003.526.21.242 1.3-.226.871-.437 1.096-.593 1.095a.209.209 0 0 1-.137-.06c-.109.686-.396 1.52-1.107 2.113-1.757 1.348-3.424.026-3.424.026zm7.061 1.95c-1.657-.422-3.003-1.37-3.003-1.37L7.71 13.311l-.171.536-.56-1.584c1.402-1.954-.37-1.878-.37-1.878s-1.772-.076-.371 1.878l-.554 1.571-.172-.53-.003.009-.198-.626-1.05-3.322s-1.347.948-3.004 1.37C.022 11.047-.038 12.473.01 13.18c0 0-.014.98.144 1.378 0 0 2.413 1.568 6.454 1.568l.007-.09-.002.09c.695 0 1.342-.046 1.936-.123a3.345 3.345 0 0 1 4.629-3.707c-.095-.653-.397-1.353-1.218-1.562zm2.513 4.623a2.642 2.642 0 1 1-5.284 0 2.642 2.642 0 0 1 5.284 0zm-1.006-.384h-1.252v-1.252h-.768v1.252h-1.252v.768h1.252v1.252h.768v-1.252h1.252v-.768z"/>
</svg>
