<svg xmlns="http://www.w3.org/2000/svg" width="18" height="18" fill="none" viewBox="0 0 18 18">
    <path fill="#ACAFB9" d="M17.147 7.105H16.2c-.36 0-.663-.227-.796-.568-.038-.114-.095-.228-.132-.322a.837.837 0 0 1 .17-.967l.682-.682a.846.846 0 0 0 0-1.212l-1.478-1.478a.846.846 0 0 0-1.212 0l-.682.682a.868.868 0 0 1-.967.17c-.113-.037-.208-.094-.322-.132-.34-.133-.568-.436-.568-.796V.853A.849.849 0 0 0 10.042 0H7.958a.85.85 0 0 0-.853.853v.966c0 .36-.227.682-.568.796a2.311 2.311 0 0 0-.322.132.874.874 0 0 1-.967-.17l-.682-.682a.846.846 0 0 0-1.212 0L1.876 3.373a.846.846 0 0 0 0 1.212l.682.682a.868.868 0 0 1 .17.967 2.312 2.312 0 0 0-.132.322c-.133.34-.436.568-.796.568H.853A.85.85 0 0 0 0 7.977v2.084c0 .455.379.834.853.834h.928c.36 0 .682.227.796.568.038.114.095.228.132.341a.874.874 0 0 1-.17.966l-.663.664a.846.846 0 0 0 0 1.212l1.478 1.478a.846.846 0 0 0 1.212 0l.645-.644a.838.838 0 0 1 .947-.17c.133.056.265.113.379.17.322.133.55.436.55.796v.871c0 .474.378.853.852.853h2.084a.85.85 0 0 0 .853-.853v-.928c0-.341.208-.663.55-.796.132-.057.264-.095.378-.17a.839.839 0 0 1 .948.17l.644.644a.847.847 0 0 0 1.212 0l1.478-1.478a.846.846 0 0 0 0-1.212l-.644-.625a.862.862 0 0 1-.17-.967c.056-.113.094-.227.132-.34.133-.342.436-.57.796-.57h.947a.85.85 0 0 0 .853-.852V7.94a.845.845 0 0 0-.853-.834zM9 12.315A3.307 3.307 0 0 1 5.684 9 3.307 3.307 0 0 1 9 5.684 3.307 3.307 0 0 1 12.316 9 3.307 3.307 0 0 1 9 12.316z"/>
</svg>
