<svg xmlns="http://www.w3.org/2000/svg" width="19" height="21" fill="none" viewBox="0 0 19 21">
    <path fill="#ACAFB9" d="M3.843 12.216h-.021a.396.396 0 0 1-.28-.143l-1.366-1.639a.434.434 0 0 1 .038-.591.385.385 0 0 1 .564.04l1.094 1.313 2.365-2.3a.385.385 0 0 1 .565.022c.15.17.14.435-.022.592l-2.666 2.595a.39.39 0 0 1-.271.111zm13.955-8.618h-2.417a.198.198 0 0 1-.193-.202V.836c0-.18.209-.27.33-.142l2.417 2.56c.12.127.035.344-.137.344zm.737-.596L15.792.123A.39.39 0 0 0 15.509 0H4.537a.41.41 0 0 0-.4.42v4.545c.133-.011.265-.022.4-.022 2.919 0 5.293 2.493 5.293 5.557 0 3.064-2.374 5.557-5.293 5.557a4.81 4.81 0 0 1-.4-.022v4.545c0 .232.18.42.4.42h13.715a.41.41 0 0 0 .4-.42V3.3a.432.432 0 0 0-.117-.298zM8.986 10.5c0-2.601-2.015-4.718-4.493-4.718C2.016 5.782 0 7.9 0 10.5s2.016 4.718 4.493 4.718c2.478 0 4.493-2.117 4.493-4.718z"/>
</svg>
