<svg xmlns="http://www.w3.org/2000/svg" width="36" height="36" fill="none" viewBox="0 0 36 36">
    <rect width="36" height="36" fill="#FFBA53" rx="18"/>
    <path fill="#fff" d="M18.524 11.463a.5.5 0 0 1 .951 0l1.209 3.72a.5.5 0 0 0 .475.345h3.91a.5.5 0 0 1 .294.904L22.2 18.731a.5.5 0 0 0-.182.559l1.209 3.719a.5.5 0 0 1-.77.559l-3.163-2.299a.5.5 0 0 0-.588 0l-3.163 2.299a.5.5 0 0 1-.77-.56l1.209-3.718a.5.5 0 0 0-.182-.56l-3.164-2.298a.5.5 0 0 1 .294-.904h3.91a.5.5 0 0 0 .476-.346l1.209-3.719z"/>
</svg>
