<svg xmlns="http://www.w3.org/2000/svg" width="16" height="16" fill="none" viewBox="0 0 16 16">
    <path fill="#E94949" fill-rule="evenodd" d="M11.623 2.35h3.73c.367 0 .647.28.647.647v.043c-.022.345-.302.626-.647.604H14.21l-.69 10.608a1.695 1.695 0 0 1-1.724 1.617h-7.59a1.695 1.695 0 0 1-1.725-1.617L1.79 3.644H.605C.26 3.622-.02 3.342 0 2.997c0-.366.28-.647.647-.647h3.73v-.625A1.73 1.73 0 0 1 6.103 0h3.795a1.73 1.73 0 0 1 1.725 1.725v.625zm-5.52-1.056a.433.433 0 0 0-.431.43v.626h4.657v-.625a.433.433 0 0 0-.431-.431H6.103zm.13 4.247a.635.635 0 0 0-.647.647v5.843c0 .367.28.647.647.647a.696.696 0 0 0 .646-.647V6.188a.696.696 0 0 0-.646-.647zm3.536 0a.696.696 0 0 0-.647.647v5.843a.696.696 0 0 0 .647.647c.366 0 .646-.28.646-.647V6.188a.635.635 0 0 0-.646-.647z" clip-rule="evenodd"/>
</svg>
