<svg xmlns="http://www.w3.org/2000/svg" width="20" height="20" fill="none" viewBox="0 0 20 20">
    <path fill="#ACAFB9" d="M19.584 0H4.615A.417.417 0 0 0 4.2.417v1.458l1.164 1.167c.033.033.066.07.096.108l.948.954 8.382 8.354-.02.009c.066.07.207.233.286.441l1.618 4.271c.174.463.062.983-.287 1.33a1.237 1.237 0 0 1-1.322.283l-4.262-1.621a1.214 1.214 0 0 1-.574-.442l-6-5.975-.03 8.83a.42.42 0 0 0 .121.295c.08.08.187.12.295.12h14.97a.415.415 0 0 0 .415-.416V.417A.417.417 0 0 0 19.584 0zm-2.12 6.25H10.81a.417.417 0 0 1 0-.833h6.653a.417.417 0 0 1 0 .833zm0-2.917H6.653a.417.417 0 0 1 0-.833h10.81a.417.417 0 0 1 0 .833z"/>
    <path fill="#ACAFB9" d="M4.848 4.117l.013-.028.006-.02a.427.427 0 0 0 .024-.124c.001-.018-.001-.035-.002-.053a.418.418 0 0 0-.018-.094l-.016-.046a.403.403 0 0 0-.082-.123L3.601 2.45c-.47-.47-1.293-.47-1.763 0L.366 3.925A1.24 1.24 0 0 0 0 4.808c0 .338.129.65.366.888l1.177 1.179c.074.075.183.12.29.12a.429.429 0 0 0 .296-.12l2.644-2.654a.302.302 0 0 0 .075-.104zM13.36 12.208L5.6 4.471c-.024.05-3.114 3.179-3.243 3.241l7.763 7.734c.025-.05 3.106-3.175 3.24-3.238zM10.941 15.704a.426.426 0 0 0 .156.69l4.262 1.62a.41.41 0 0 0 .441-.096.417.417 0 0 0 .095-.442l-1.617-4.27a.514.514 0 0 0-.11-.163.406.406 0 0 0-.582.011c-.123.126-2.505 2.508-2.645 2.65z"/>
</svg>
