<svg xmlns="http://www.w3.org/2000/svg" width="14" height="16" fill="none" viewBox="0 0 14 16">
    <path fill="#fff" d="M2.76 11.988c-.14.07-.45.143-.856.143-1.152 0-1.746-.717-1.746-1.666 0-1.138.811-1.77 1.82-1.77.39 0 .687.079.82.148l-.153.598a1.63 1.63 0 0 0-.633-.123c-.598 0-1.063.36-1.063 1.102 0 .668.396 1.088 1.068 1.088.228 0 .48-.05.628-.108l.114.588zM3.278 11.306c.203.104.515.207.836.207.346 0 .53-.143.53-.36 0-.208-.16-.327-.56-.47-.554-.193-.915-.5-.915-.984 0-.569.475-1.004 1.261-1.004.376 0 .653.079.85.168l-.167.608a1.587 1.587 0 0 0-.698-.158c-.326 0-.484.148-.484.321 0 .213.188.307.618.47.589.218.865.524.865.994 0 .559-.43 1.034-1.345 1.034-.38 0-.756-.1-.944-.203l.153-.623zM6.71 12.082L5.644 8.749h.825l.406 1.41c.114.395.218.776.297 1.191h.014c.085-.4.188-.796.302-1.176l.425-1.425h.801l-1.122 3.333h-.88zM9.162 3.664h2.402c-.72-1.012-2.13-2.615-2.928-3.316v2.711c0 .333.236.605.526.605z"/>
    <path fill="#fff" d="M12.017 6.588V4.523H9.163c-.703 0-1.275-.657-1.275-1.464V0H.9C.403 0 0 .463 0 1.034v3.184h.002v3.03h13.136v6.204H.002v1.557c.02.551.414.991.9.991h10.214c.497 0 .9-.463.9-1.034v-.854h1.781V6.588h-1.78z"/>
</svg>
