<svg xmlns="http://www.w3.org/2000/svg" width="29" height="36" fill="none" viewBox="0 0 29 36">
    <path fill="#1A4A9B" d="M0 2a2 2 0 0 1 2-2h18.99a2 2 0 0 1 1.562.75l5.985 7.483a2 2 0 0 1 .439 1.249V34a2 2 0 0 1-2 2H2a2 2 0 0 1-2-2V2z"/>
    <path fill="#fff" d="M6.322 31.83h1.323V28.4h.801v-1.035h-.8v-.27c0-.459.188-.639.512-.639.144 0 .306.036.46.09l.242-.972a2.67 2.67 0 0 0-.89-.162c-1.207 0-1.648.774-1.648 1.72v.242l-.594.045v.981h.594v3.43zm2.843 0h1.323v-4.465H9.165v4.464zm.657-5.122c.45 0 .765-.288.765-.693 0-.405-.315-.684-.765-.684-.441 0-.765.28-.765.684 0 .405.324.693.765.693zm3.045 5.23c.297 0 .522-.046.666-.109l-.162-.98c-.072.017-.108.017-.162.017-.108 0-.234-.09-.234-.369V25.52h-1.323v4.923c0 .9.306 1.494 1.215 1.494zm3.358 0a2.92 2.92 0 0 0 1.584-.505l-.44-.8c-.325.197-.63.296-.964.296-.594 0-1.044-.297-1.16-.945h2.672c.027-.108.054-.35.054-.585 0-1.215-.63-2.142-1.899-2.142-1.07 0-2.106.891-2.106 2.34 0 1.476.981 2.34 2.26 2.34zm-.99-2.827c.09-.567.45-.846.864-.846.531 0 .747.351.747.846h-1.61z"/>
    <path fill="#fff" fill-rule="evenodd" d="M5.268 9.659c0-.485.393-.878.878-.878h14.927a.878.878 0 1 1 0 1.756H6.146a.878.878 0 0 1-.878-.878zm0 4.39c0-.485.393-.878.878-.878h14.927a.878.878 0 0 1 0 1.756H6.146a.878.878 0 0 1-.878-.878zm.878 3.512a.878.878 0 0 0 0 1.756h7.025a.878.878 0 1 0 0-1.756H6.146z" clip-rule="evenodd"/>
</svg>
