<svg xmlns="http://www.w3.org/2000/svg" width="13" height="16" fill="none" viewBox="0 0 13 16">
    <path fill="#466BA5" d="M8.556 3.312a1.38 1.38 0 0 1-1.38-1.38V0H.828A.828.828 0 0 0 0 .828v13.248a.828.828 0 0 0 .828.828h5.813a3.555 3.555 0 0 1-.552-1.932A3.594 3.594 0 0 1 9.66 9.384a3.4 3.4 0 0 1 .828.1V3.312H8.556zM5.244 9.936H1.932a.276.276 0 0 1 0-.552h3.312a.276.276 0 0 1 0 .552zm3.312-2.208H1.932a.276.276 0 0 1 0-.552h6.624a.276.276 0 0 1 0 .552zm0-2.208H1.932a.276.276 0 1 1 0-.552h6.624a.276.276 0 1 1 0 .552z"/>
    <path fill="#466BA5" d="M10.682 10.113l-.078-.028a3.036 3.036 0 0 0-3.251 4.858l.033.039a3.036 3.036 0 1 0 3.312-4.87h-.016zm.082 3.135h-.828v.828a.276.276 0 0 1-.552 0v-.828H8.49a.276.276 0 0 1-.21-.276.276.276 0 0 1 .276-.276h.828v-.828a.265.265 0 0 1 .205-.265h.071a.276.276 0 0 1 .276.276v.828h.828a.276.276 0 1 1 0 .552v-.01zM10.096 2.76h-1.54a.828.828 0 0 1-.828-.828V.392l2.368 2.368z"/>
</svg>
