<svg xmlns="http://www.w3.org/2000/svg" width="108" height="75" fill="none" viewBox="0 0 108 75">
    <path fill="#E1E6EF" fill-rule="evenodd" d="M98.807 60.156c-3.895 0-7.097-3.154-7.097-7.047 0-3.867 3.177-7.047 7.097-7.047h.845c4.048 0 7.379-3.281 7.379-7.326 0-4.02-3.305-7.327-7.379-7.327h-2.588a2.855 2.855 0 0 1-2.87-2.85 2.855 2.855 0 0 1 2.87-2.848h1.896c1.076 0 1.973-.89 1.973-1.96 0-1.068-.897-1.958-1.973-1.958H86.176c-1.717 0-3.1-1.4-3.1-3.078 0-1.705 1.409-3.079 3.1-3.079h3.817c1.076 0 1.973-.89 1.973-1.958 0-1.069-.897-1.96-1.973-1.96h-60.58c-1.41 0-2.588 1.146-2.588 2.57 0 1.4 1.153 2.57 2.588 2.57h7.84c2.229 0 4.048 1.806 4.048 4.02 0 2.212-1.819 4.018-4.048 4.018H10.505c-1.41 0-2.588 1.145-2.588 2.57 0 1.4 1.153 2.57 2.588 2.57h2.485c2.05 0 3.74 1.678 3.74 3.714 0 2.035-1.69 3.714-3.74 3.714H9.608c-5.278 0-9.608 4.3-9.608 9.54 0 5.24 4.33 9.54 9.608 9.54h1.102c5.073 0 9.505-1.45 9.505 3.612h78.592zM22.803 16.858a2.572 2.572 0 0 1-2.588-2.57 2.572 2.572 0 0 1 2.588-2.57 2.572 2.572 0 0 1 2.587 2.57 2.572 2.572 0 0 1-2.587 2.57zm81.717 8.904a1.967 1.967 0 0 1-1.973-1.96c0-1.093.897-1.958 1.973-1.958 1.102 0 1.973.89 1.973 1.959.026 1.068-.871 1.959-1.973 1.959z" clip-rule="evenodd"/>
    <path fill="#C4C7D4" d="M81.267 0H31.253a7.783 7.783 0 0 0-7.74 8.83 1.563 1.563 0 0 0 2.342 1.145c.69-.4 1.475-.607 2.272-.597h8.002a4.71 4.71 0 0 1 4.445 3.182l.266.853a7.852 7.852 0 0 0 7.418 5.342h36.135c.82 0 1.624.216 2.335.625a1.563 1.563 0 0 0 2.353-1.344V7.815A7.815 7.815 0 0 0 81.267 0z"/>
    <path fill="#848997" d="M54.697 68.769c-6.906 0-12.504-5.598-12.504-12.503 0-6.906 5.598-12.504 12.504-12.504 6.905 0 12.503 5.598 12.503 12.504 0 6.905-5.598 12.503-12.503 12.503zm0-21.881a9.378 9.378 0 1 0 0 18.755 9.378 9.378 0 0 0 0-18.755z"/>
    <path fill="#A5A8BA" d="M88.31 16.684a7.77 7.77 0 0 0-3.917-1.056H48.258a4.71 4.71 0 0 1-4.445-3.182l-.266-.854A7.852 7.852 0 0 0 36.13 6.25h-8.003a7.502 7.502 0 0 0-3.829 1.01 7.687 7.687 0 0 0-1.67 1.275 7.648 7.648 0 0 0-2.315 5.53v37.51a7.815 7.815 0 0 0 7.814 7.815H39.38c-1.717-8.46 3.748-16.71 12.207-18.427 8.459-1.718 16.709 3.747 18.427 12.206a15.632 15.632 0 0 1 0 6.22h14.379a7.815 7.815 0 0 0 7.814-7.814V23.442a7.764 7.764 0 0 0-3.898-6.758z"/>
    <path fill="#848997" d="M72.996 72.351l-9.378-9.377a1.563 1.563 0 0 0-2.21 2.21l9.378 9.377a1.563 1.563 0 0 0 2.21-2.21z"/>
</svg>
