<svg xmlns="http://www.w3.org/2000/svg" width="16" height="15" fill="none" viewBox="0 0 16 15">
    <path fill="#466BA5" d="M.533 0A.533.533 0 0 0 0 .533v1.052a.533.533 0 0 0 .533.533h10.675a.533.533 0 0 0 .533-.533V.533A.533.533 0 0 0 11.208 0H.533zm1.073.491a.533.533 0 1 1 0 1.067.533.533 0 0 1 0-1.067zm2.132 0a.533.533 0 1 1 0 1.067.533.533 0 0 1 0-1.067zm2.133 0a.533.533 0 1 1 0 1.067.533.533 0 0 1 0-1.067zm-5.334 2.7c-.293 0-.53.219-.53.489v10.75c0 .27.237.49.53.49h10.636c.293 0 .532-.219.533-.488v-.977l.029-1.947h-1.708l.002.425c0 .651-.434 1.223-.966 1.443a1.602 1.602 0 0 1-1.703-.337h-.002l-2.985-2.993a1.58 1.58 0 0 1 0-2.21l2.968-2.975a1.568 1.568 0 0 1 1.056-.459c-.09 0-.021-.001.09-.01.132-.01.35-.014.62.09.27.103.568.354.718.641.15.286.188.568.188.841v.427h1.722V3.73c0-.274-.273-.54-.57-.535-3.466.056-7.068 0-10.626 0L.537 3.19zm7.918 2.276a.488.488 0 0 0-.34.145L5.13 8.588a.496.496 0 0 0 0 .704l3.005 2.993a.5.5 0 0 0 .854-.352l-.004-1.491H15.5c.277 0 .5-.223.5-.498V7.907a.499.499 0 0 0-.5-.497H8.976L8.97 5.964a.5.5 0 0 0-.518-.495l.002-.002z"/>
</svg>
