<svg xmlns="http://www.w3.org/2000/svg" width="36" height="36" fill="none" viewBox="0 0 36 36">
    <circle cx="18" cy="18" r="18" fill="#EEEFF5"/>
    <path fill="#B0B1BA" fill-rule="evenodd" d="M13.727 11.372a.372.372 0 1 1 .744 0v3.163a.372.372 0 1 1-.744 0v-3.163zm7.814 0a.372.372 0 0 1 .744 0v3.163a.372.372 0 0 1-.744 0v-3.163zM10 13.611c0-.828.667-1.495 1.494-1.495h1.855v1.593a1.116 1.116 0 1 0 1.488-.012v-1.58h6.332v1.586a1.116 1.116 0 1 0 1.488 0v-1.587h1.848c.828 0 1.495.667 1.495 1.495v3.342H10v-3.342zm0 11.523v-7.436h16v3.529a4.528 4.528 0 0 0-3.533-1.698 4.542 4.542 0 0 0-4.534 4.533c0 .951.296 1.835.8 2.566h-7.239A1.492 1.492 0 0 1 10 25.134z" clip-rule="evenodd"/>
    <rect width="7" height="1" x="19" y="24" fill="#B0B1BA" rx=".5"/>
</svg>
