<svg xmlns="http://www.w3.org/2000/svg" width="36" height="36" fill="none" viewBox="0 0 36 36">
    <rect width="36" height="36" fill="#FFBA53" rx="18"/>
    <path fill="#fff" d="M23.247 17.904l-4.971 1.402a1.023 1.023 0 0 1-.285.038 1 1 0 0 1-.282-.038l-4.986-1.402v3.202c0 .75 2.366 1.402 5.275 1.402 2.91 0 5.25-.63 5.25-1.406v-3.198z"/>
    <path fill="#fff" d="M26.73 15.43l-8.57-2.407a.589.589 0 0 0-.323 0L9.262 15.43a.323.323 0 0 0-.262.277c0 .12.105.225.262.27l8.575 2.407a.576.576 0 0 0 .157.026.529.529 0 0 0 .154-.026l7.161-2.013v5.54a.57.57 0 0 0-.262.162.817.817 0 0 0-.154.652c.112.41.287.8.517 1.155a.187.187 0 0 0 .15.083.173.173 0 0 0 .143-.083s.123-.206.247-.435c.142-.215.242-.456.296-.708a.82.82 0 0 0-.176-.649.54.54 0 0 0-.247-.169v-5.687l.915-.255c.157-.045.262-.15.262-.27a.322.322 0 0 0-.27-.277z"/>
</svg>
