<svg xmlns="http://www.w3.org/2000/svg" width="12" height="8" fill="none" viewBox="0 0 12 8">
    <path fill="#43D084" fill-rule="evenodd" d="M11.915 3.309C11.8 3.169 9.25 0 6.005 0 2.759 0 .208 3.17.095 3.309a.419.419 0 0 0 0 .53c.113.139 2.664 3.309 5.91 3.309 3.245 0 5.796-3.183 5.91-3.309a.455.455 0 0 0 0-.53zm-5.91 2.639A2.371 2.371 0 0 1 3.63 3.574 2.371 2.371 0 0 1 6.005 1.2a2.371 2.371 0 0 1 2.374 2.374 2.371 2.371 0 0 1-2.374 2.374z" clip-rule="evenodd"/>
    <path fill="#43D084" d="M6.005 5.013a1.44 1.44 0 1 0 0-2.879 1.44 1.44 0 0 0 0 2.88z"/>
</svg>
